<svg version="1.1" viewBox="0 0 96 96" xmlns="http://www.w3.org/2000/svg" xmlns:xlink="http://www.w3.org/1999/xlink" id="Icons_Research" overflow="hidden"><style>
.MsftOfcThm_Background1_Stroke {
 stroke:#FFFFFF; 
}
</style>
<path d=" M 72.5 63.1 C 70.9 61.5 68.5 60.7 66.3 61.2 L 61.8 56.8 C 65.8 51.6 68 45.2 68 38.6 C 68.1 21.9 54.6 8.4 38 8.3 C 21.4 8.2 7.9 21.7 7.8 38.3 C 7.7 54.9 21.2 68.4 37.8 68.5 C 44.4 68.5 50.9 66.3 56.2 62.3 L 60.6 66.7 C 60.2 69 60.9 71.3 62.5 73 L 75 85.5 C 77.7 88.2 82.2 88.2 84.9 85.5 C 87.6 82.8 87.6 78.3 84.9 75.6 L 72.5 63.1 Z M 38 62.5 C 24.7 62.5 14 51.8 14 38.5 C 14 25.2 24.7 14.5 38 14.5 C 51.3 14.5 62 25.2 62 38.5 C 62 51.7 51.2 62.5 38 62.5 Z" stroke="#FFFFFF" stroke-width="1" stroke-dasharray="" stroke-dashoffset="1" stroke-opacity="1" fill="#00B0F0" fill-opacity="1"/><path d=" M 59.5 37 L 53.8 37 C 53.3 37.1 52.8 37.4 52.5 37.8 L 48.7 41.9 L 45.5 30.8 C 45.2 29.9 44.2 29.3 43.3 29.6 C 42.8 29.8 42.3 30.1 42.1 30.7 L 36.1 46.6 L 32 24.6 C 31.8 23.6 30.9 23 30 23.2 C 29.4 23.3 28.9 23.8 28.6 24.4 L 24.3 37 L 16.5 37 L 16.5 41 L 25.6 41 C 26.4 40.9 27.1 40.3 27.3 39.5 L 29.8 31.9 L 33.8 53.4 C 33.9 54.2 34.6 54.8 35.4 54.8 L 35.6 54.8 C 36.3 54.8 37 54.4 37.3 53.7 L 43.7 36.9 L 46.3 45.9 C 46.6 46.8 47.5 47.4 48.5 47.1 C 48.8 47 49.1 46.8 49.3 46.6 L 54.7 41 L 59.6 41 L 59.6 37 Z" stroke="#FFFFFF" stroke-width="1" stroke-dasharray="" stroke-dashoffset="1" stroke-opacity="1" fill="#00B0F0" fill-opacity="1"/></svg>